<?xml version="1.0" encoding="UTF-8" standalone="no"?>
<!-- Created with Inkscape (http://www.inkscape.org/) -->

<svg
   xmlns:dc="http://purl.org/dc/elements/1.1/"
   xmlns:cc="http://creativecommons.org/ns#"
   xmlns:rdf="http://www.w3.org/1999/02/22-rdf-syntax-ns#"
   xmlns:svg="http://www.w3.org/2000/svg"
   xmlns="http://www.w3.org/2000/svg"
   xmlns:sodipodi="http://sodipodi.sourceforge.net/DTD/sodipodi-0.dtd"
   xmlns:inkscape="http://www.inkscape.org/namespaces/inkscape"
   width="999.99994"
   height="930.18054"
   id="svg5376"
   version="1.1"
   inkscape:version="0.48.2 r9819"
   sodipodi:docname="A1.svg">
  <defs
     id="defs5378">
    <clipPath
       clipPathUnits="userSpaceOnUse"
       id="clipPath5120">
      <path
         inkscape:connector-curvature="0"
         d="m 42.52,755.433 186.079,0 0,43.937 -186.079,0 0,-43.937 z"
         id="path5122" />
    </clipPath>
    <clipPath
       clipPathUnits="userSpaceOnUse"
       id="clipPath5128">
      <path
         inkscape:connector-curvature="0"
         d="m 42.52,799.37 0,-43.937 186.079,0 0,43.937"
         id="path5130" />
    </clipPath>
    <clipPath
       clipPathUnits="userSpaceOnUse"
       id="clipPath5148">
      <path
         inkscape:connector-curvature="0"
         d="m 42.52,799.37 0,-43.937 186.079,0 0,43.937"
         id="path5150" />
    </clipPath>
    <clipPath
       clipPathUnits="userSpaceOnUse"
       id="clipPath5202">
      <path
         inkscape:connector-curvature="0"
         d="m 42.52,799.37 0,-43.937 186.079,0 0,43.937"
         id="path5204" />
    </clipPath>
    <clipPath
       clipPathUnits="userSpaceOnUse"
       id="clipPath5214">
      <path
         inkscape:connector-curvature="0"
         d="m 42.52,799.37 0,-43.937 186.079,0 0,43.937"
         id="path5216" />
    </clipPath>
    <clipPath
       clipPathUnits="userSpaceOnUse"
       id="clipPath5234">
      <path
         inkscape:connector-curvature="0"
         d="m 42.52,799.37 0,-43.937 186.079,0 0,43.937"
         id="path5236" />
    </clipPath>
    <clipPath
       clipPathUnits="userSpaceOnUse"
       id="clipPath5290">
      <path
         inkscape:connector-curvature="0"
         d="m 42.52,799.37 0,-43.937 186.079,0 0,43.937"
         id="path5292" />
    </clipPath>
    <clipPath
       clipPathUnits="userSpaceOnUse"
       id="clipPath5330">
      <path
         inkscape:connector-curvature="0"
         d="m 42.52,799.37 0,-43.937 186.079,0 0,43.937"
         id="path5332" />
    </clipPath>
    <clipPath
       clipPathUnits="userSpaceOnUse"
       id="clipPath9912">
      <path
         inkscape:connector-curvature="0"
         d="m 339.445,232.6586 46.025,0 0,51.899 -46.025,0 0,-51.899 z"
         id="path9914" />
    </clipPath>
    <clipPath
       clipPathUnits="userSpaceOnUse"
       id="clipPath9920">
      <path
         inkscape:connector-curvature="0"
         d="m 344.657,232.6836 34.7253,0 0,51.8676 -34.7253,0 0,-51.8676 z"
         id="path9922" />
    </clipPath>
    <clipPath
       clipPathUnits="userSpaceOnUse"
       id="clipPath12233">
      <path
         inkscape:connector-curvature="0"
         d="m 257.953,19.842 141.732,0 0,53.504 -141.732,0 0,-53.504 z"
         id="path12235" />
    </clipPath>
    <clipPath
       clipPathUnits="userSpaceOnUse"
       id="clipPath16018">
      <path
         inkscape:connector-curvature="0"
         d="m 44.622,38.953 92.124,0 0,37.175 -92.124,0 0,-37.175 z"
         id="path16020" />
    </clipPath>
    <clipPath
       clipPathUnits="userSpaceOnUse"
       id="clipPath16002">
      <path
         inkscape:connector-curvature="0"
         d="m 44.63,38.953 92.116,0 0,37.175 -92.116,0 0,-37.175 z"
         id="path16004" />
    </clipPath>
    <clipPath
       clipPathUnits="userSpaceOnUse"
       id="clipPath15894">
      <path
         inkscape:connector-curvature="0"
         d="m 44.622,38.953 92.124,0 0,37.175 -92.124,0 0,-37.175 z"
         id="path15896" />
    </clipPath>
    <clipPath
       clipPathUnits="userSpaceOnUse"
       id="clipPath15882">
      <path
         inkscape:connector-curvature="0"
         d="m 44.63,38.953 92.116,0 0,37.175 -92.116,0 0,-37.175 z"
         id="path15884" />
    </clipPath>
    <clipPath
       clipPathUnits="userSpaceOnUse"
       id="clipPath16679">
      <path
         inkscape:connector-curvature="0"
         d="m -8.504,-8.503 437.953,0 0,106.997 -437.953,0 0,-106.997 z"
         id="path16681" />
    </clipPath>
    <clipPath
       clipPathUnits="userSpaceOnUse"
       id="clipPath19116">
      <path
         inkscape:connector-curvature="0"
         d="m 524.8765,58.1629 51.9736,0 c 2.3483,0 4.252,-1.9037 4.252,-4.252 l 0,-35.486 c 0,-2.3483 -1.9037,-4.252 -4.252,-4.252 l -103.9471,0 c -2.3483,0 -4.252,1.9037 -4.252,4.252 l 0,35.486 c 0,2.3483 1.9037,4.252 4.252,4.252"
         clip-rule="evenodd"
         id="path19118" />
    </clipPath>
    <clipPath
       clipPathUnits="userSpaceOnUse"
       id="clipPath19124">
      <path
         inkscape:connector-curvature="0"
         d="m 470.549,17.1589 108.7399,0 0,37.6171 -108.7399,0 0,-37.6171 z"
         id="path19126" />
    </clipPath>
    <clipPath
       clipPathUnits="userSpaceOnUse"
       id="clipPath19501">
      <path
         inkscape:connector-curvature="0"
         d="m 0.323,2.044 594.629,0 0,82.145 -594.629,0 0,-82.145 z"
         id="path19503" />
    </clipPath>
    <clipPath
       clipPathUnits="userSpaceOnUse"
       id="clipPath19485">
      <path
         inkscape:connector-curvature="0"
         d="m 245.246,17.778 109.243,0 0,48.927 -109.243,0 0,-48.927 z"
         id="path19487" />
    </clipPath>
    <clipPath
       clipPathUnits="userSpaceOnUse"
       id="clipPath20517">
      <path
         inkscape:connector-curvature="0"
         d="m 507.4,28.3467 59.5289,0 0,84.807 -59.5289,0 0,-84.807 z"
         id="path20519" />
    </clipPath>
    <clipPath
       clipPathUnits="userSpaceOnUse"
       id="clipPath20525">
      <path
         inkscape:connector-curvature="0"
         d="m 509.837,27.1888 62.3996,0 0,83.0584 -62.3996,0 0,-83.0584 z"
         id="path20527" />
    </clipPath>
    <clipPath
       clipPathUnits="userSpaceOnUse"
       id="clipPath32351">
      <path
         inkscape:connector-curvature="0"
         d="m 789.437,22.03 20.563,0 0,41.765 -20.563,0 0,-41.765 z"
         id="path32353" />
    </clipPath>
    <clipPath
       clipPathUnits="userSpaceOnUse"
       id="clipPath34294">
      <path
         inkscape:connector-curvature="0"
         d="m 487.355,14.173 98.707,0 0,52.477 -98.707,0 0,-52.477 z"
         id="path34296" />
    </clipPath>
    <clipPath
       clipPathUnits="userSpaceOnUse"
       id="clipPath38161">
      <path
         inkscape:connector-curvature="0"
         d="m 322.047,17.3088 258.213,0 0,93.242 -258.213,0 0,-93.242 z"
         id="path38163" />
    </clipPath>
    <clipPath
       clipPathUnits="userSpaceOnUse"
       id="clipPath38169">
      <path
         inkscape:connector-curvature="0"
         d="m 344.927,26.6568 227.546,0 0,79.3105 -227.546,0 0,-79.3105 z"
         id="path38171" />
    </clipPath>
    <clipPath
       clipPathUnits="userSpaceOnUse"
       id="clipPath38544">
      <path
         inkscape:connector-curvature="0"
         d="m 157.446,17.008 104.635,0 0,25.449 -104.635,0 0,-25.449 z"
         id="path38546" />
    </clipPath>
    <clipPath
       clipPathUnits="userSpaceOnUse"
       id="clipPath38544-4">
      <path
         inkscape:connector-curvature="0"
         d="m 157.446,17.008 104.635,0 0,25.449 -104.635,0 0,-25.449 z"
         id="path38546-0" />
    </clipPath>
    <clipPath
       clipPathUnits="userSpaceOnUse"
       id="clipPath48037">
      <path
         inkscape:connector-curvature="0"
         d="m 14.008,14.008 442.063,0 0,103.606 -442.063,0 0,-103.606 z"
         id="path48039" />
    </clipPath>
    <clipPath
       clipPathUnits="userSpaceOnUse"
       id="clipPath48089">
      <path
         inkscape:connector-curvature="0"
         d="m 354.836,51.742 46.193,0 0,51.453 -46.193,0 0,-51.453 z"
         id="path48091" />
    </clipPath>
    <clipPath
       clipPathUnits="userSpaceOnUse"
       id="clipPath48105">
      <path
         inkscape:connector-curvature="0"
         d="m 14.008,14.008 442.063,0 0,103.606 -442.063,0 0,-103.606 z"
         id="path48107" />
    </clipPath>
    <clipPath
       clipPathUnits="userSpaceOnUse"
       id="clipPath54189">
      <path
         inkscape:connector-curvature="0"
         d="m 177.584,193.234 0,-39.251 32.873,0 0,39.251"
         id="path54191" />
    </clipPath>
  </defs>
  <sodipodi:namedview
     id="base"
     pagecolor="#ffffff"
     bordercolor="#666666"
     borderopacity="1.0"
     inkscape:pageopacity="0.0"
     inkscape:pageshadow="2"
     inkscape:zoom="0.35"
     inkscape:cx="446.06248"
     inkscape:cy="-80.057661"
     inkscape:document-units="px"
     inkscape:current-layer="g37407"
     showgrid="false"
     fit-margin-left="0.5"
     fit-margin-bottom="0.5"
     fit-margin-top="0.5"
     fit-margin-right="0.5"
     inkscape:window-width="1278"
     inkscape:window-height="1035"
     inkscape:window-x="644"
     inkscape:window-y="-21"
     inkscape:window-maximized="0" />
  <metadata
     id="metadata5381">
    <rdf:RDF>
      <cc:Work
         rdf:about="">
        <dc:format>image/svg+xml</dc:format>
        <dc:type
           rdf:resource="http://purl.org/dc/dcmitype/StillImage" />
        <dc:title></dc:title>
      </cc:Work>
    </rdf:RDF>
  </metadata>
  <g
     inkscape:label="Layer 1"
     inkscape:groupmode="layer"
     id="layer1"
     transform="translate(-7056.5735,7485.7909)">
    <g
       transform="matrix(8.5998536,0,0,-8.5998536,2765.5598,-5681.637)"
       id="g37407">
      <g
         id="g54448"
         transform="matrix(1.1133825,0,0,1.1133825,462.46659,61.070265)">
        <g
           transform="translate(63.5239,133.5215)"
           id="g54428">
          <path
             id="path54430"
             style="fill:#ffffff;fill-opacity:1;fill-rule:nonzero;stroke:none"
             d="M 0,0 -30.691,-20.039 -9.47,-37.033 21.476,-17.925 0,0 z"
             inkscape:connector-curvature="0" />
        </g>
        <g
           transform="translate(32.8325,79.4932)"
           id="g54432">
          <path
             id="path54434"
             style="fill:#ffffff;fill-opacity:1;fill-rule:nonzero;stroke:none"
             d="M 0,0 30.691,-20.039 52.167,-2.113 21.222,16.995 0,0 z"
             inkscape:connector-curvature="0" />
        </g>
        <g
           transform="translate(84.9995,77.3799)"
           id="g54436">
          <path
             id="path54438"
             style="fill:#ffffff;fill-opacity:1;fill-rule:nonzero;stroke:none"
             d="M 0,0 21.477,-17.926 52.168,2.113 30.946,19.108 0,0 z"
             inkscape:connector-curvature="0" />
        </g>
        <g
           transform="translate(137.1675,113.4824)"
           id="g54440">
          <path
             id="path54442"
             style="fill:#ffffff;fill-opacity:1;fill-rule:nonzero;stroke:none"
             d="M 0,0 -30.691,20.039 -52.168,2.114 -21.222,-16.994 0,0 z"
             inkscape:connector-curvature="0" />
        </g>
        <g
           transform="translate(85.063,73.5234)"
           id="g54444">
          <path
             id="path54446"
             style="fill:#ffffff;fill-opacity:1;fill-rule:nonzero;stroke:none"
             d="m 0,0 -21.539,-17.873 -9.217,6.018 0,-6.747 L 0,-37.045 l 30.756,18.443 0,6.747 -9.217,-6.018 L 0,0 z"
             inkscape:connector-curvature="0" />
        </g>
      </g>
    </g>
  </g>
</svg>
