<svg xmlns="http://www.w3.org/2000/svg" width="279" height="283">
 <!-- Created with SVG-edit - http://svg-edit.googlecode.com/ -->
 <g>
  <title>Layer 1</title>
  <path id="svg_1" d="m27.910801,58.666496c0,0 0,0 0.0177,0l26.7402,0c1.532295,0 2.764496,-1.213898 2.767395,-2.692894c0,-0.009605 -0.324593,-22.302505 -0.324593,-28.501999l0,-0.073502c0,-5.091602 1.098595,-9.530602 3.012093,-13.250702l0.914406,-1.670601c-0.102104,0.0168 -0.204803,0.065502 -0.306404,0.164803l-51.956898,50.117401c-0.101601,0.080994 -0.165001,0.186996 -0.194401,0.294998c1.074501,-0.516998 2.544001,-1.223999 2.751701,-1.313004c4.5247,-1.986198 10.011101,-3.074501 16.5788,-3.074501zm208.073193,-5.456993c-2.125,-11.060303 -8.884995,-16.511101 -14.996994,-18.654205c-6.593994,-2.318398 -19.964996,-4.719894 -36.766006,-6.646095c-13.515991,-1.548302 -29.401993,-1.425003 -38.997986,-1.136505c-1.152008,-7.673199 -6.685013,-14.683296 -12.876007,-17.110096c-16.494995,-6.458401 -41.981003,-4.898102 -48.525002,-3.1143c-5.199402,1.413597 -10.954796,4.310497 -14.157898,8.774799c-2.148201,2.981998 -3.538101,6.802299 -3.548904,12.1395c0,3.020599 0.086502,10.136299 0.165604,16.458496c0.078499,6.341805 0.164001,12.013802 0.164001,12.052505c-0.002998,5.6464 -4.707405,10.241394 -10.537498,10.248398l-26.744602,0c-5.704899,0 -10.063602,0.932999 -13.393402,2.403999c-3.334698,1.473 -5.696499,3.458 -7.491098,5.806999c-3.571899,4.665001 -4.1922,10.420998 -4.1775,16.294998c0,0 0.052599,4.800003 1.2416,14.091003c0.9886,7.188995 9.0033,57.408005 16.615601,72.681c2.951698,5.942993 4.917599,8.417999 10.716297,11.037003c12.920002,5.380997 42.431004,11.367004 56.262798,13.080994c13.806,1.718002 22.472,5.330002 27.636002,-5.201996c0.016998,-0.026993 1.033997,-2.621002 2.432999,-6.425995c4.484009,-13.215012 5.10701,-24.94101 5.10701,-33.42601c0,-0.862991 1.301987,-0.903 1.301987,0c0,5.990005 -1.175995,27.189011 15.286011,32.876999c6.5,2.241013 19.981995,4.240005 33.681,5.802002c12.386002,1.384003 21.375,6.126007 21.375,37.037003c0,18.807007 -4.061005,21.385986 -25.290009,21.385986c-17.209,0 -23.76799,0.433014 -23.76799,-12.865997c0,-10.747986 10.929001,-9.621979 19.028,-9.621979c3.617996,0 0.991989,-2.617004 0.991989,-9.248016c0,-6.597 4.242004,-10.409988 0.230011,-10.506989c-28.008011,-0.749008 -44.487,-0.031006 -44.487,34.040985c0,30.931 12.168991,36.675018 51.918991,36.675018c31.167007,0 42.153,-0.993011 55.022003,-39.833008c2.548004,-7.667999 8.705994,-31.067001 12.432999,-70.354996c2.356995,-24.841003 -2.221008,-99.818001 -5.852005,-118.741501zm-54.329987,82.873489c-3.850006,-0.130997 -7.554001,0.105011 -11.007004,0.645004c0.972,-7.634995 4.21199,-17.00499 15.688995,-16.612c12.705002,0.425003 14.486008,12.106003 14.531006,20.018005c-5.35701,-2.324005 -11.988998,-3.804001 -19.212997,-4.05101z" fill="#ffffff"/>
 </g>
</svg>