<?xml version="1.0" encoding="UTF-8" standalone="no"?>
<!-- Created with Inkscape (http://www.inkscape.org/) -->

<svg
   xmlns:dc="http://purl.org/dc/elements/1.1/"
   xmlns:cc="http://creativecommons.org/ns#"
   xmlns:rdf="http://www.w3.org/1999/02/22-rdf-syntax-ns#"
   xmlns:svg="http://www.w3.org/2000/svg"
   xmlns="http://www.w3.org/2000/svg"
   xmlns:inkscape="http://www.inkscape.org/namespaces/inkscape"
   version="1.1"
   width="106.6"
   height="106.3"
   id="svg2"
   xml:space="preserve"><metadata
     id="metadata8"><rdf:RDF><cc:Work
         rdf:about=""><dc:format>image/svg+xml</dc:format><dc:type
           rdf:resource="http://purl.org/dc/dcmitype/StillImage" /></cc:Work></rdf:RDF></metadata><defs
     id="defs6"><clipPath
       id="clipPath18"><path
         d="m 0,0 852.844,0 0,850 L 0,850 0,0 z"
         inkscape:connector-curvature="0"
         id="path20" /></clipPath></defs><g
     transform="matrix(1.25,0,0,-1.25,0,106.3)"
     id="g10"><g
       transform="scale(0.1,0.1)"
       id="g12"><g
         id="g14"><g
           clip-path="url(#clipPath18)"
           id="g16"><path
             d="m 844.648,634.414 -66.457,66.555 c -5.339,5.308 -12.3,8.242 -19.8,8.211 -7.493,0.031 -14.512,-2.91 -19.836,-8.184 L 420.508,382.82 281.301,522.285 c -5.207,5.235 -12.375,8.242 -19.785,8.223 -7.356,-0.02 -14.575,-2.969 -19.805,-8.172 L 175.145,455.84 c -10.957,-10.93 -10.997,-28.633 -0.028,-39.57 L 400.43,190.488 c 4.511,-4.519 10.363,-7.324 16.601,-8.008 1.055,-0.144 2.129,-0.207 3.203,-0.195 0.071,0 0.137,0 0.204,0.012 l 0.031,-0.024 c 7.519,-0.015 14.66,2.954 19.992,8.235 l 404.168,404.336 c 10.937,10.918 10.945,28.613 0.019,39.57"
             inkscape:connector-curvature="0"
             id="path22"
             style="fill:#ffffff;fill-opacity:1;fill-rule:nonzero;stroke:none" /><path
             d="M 819.656,497.449 477.324,154.973 c -14.785,-14.641 -34.344,-22.7 -55.168,-22.7 l -15.191,0.024 -3.195,2.137 c -13.946,3.32 -26.844,10.507 -37.04,20.742 L 141.492,380.879 c -14.762,14.726 -22.898,34.316 -22.887,55.156 0,20.86 8.141,40.469 22.899,55.176 l 66.641,66.582 c 14.472,14.395 34.5,22.676 55.125,22.715 20.558,0 40.668,-8.379 55.109,-22.903 L 422.227,453.574 642.844,674.277 495.906,821.211 c -38.894,38.887 -102.527,38.887 -141.426,0 L 29.168,495.898 c -38.89456,-38.886 -38.89456,-102.539 0,-141.425 L 354.492,29.1602 c 38.899,-38.88676 102.528,-38.88676 141.426,0 L 821.223,354.473 c 38.894,38.886 38.894,102.531 0,141.425 l -1.567,1.551"
             inkscape:connector-curvature="0"
             id="path24"
             style="fill:#ffffff;fill-opacity:1;fill-rule:nonzero;stroke:none" /></g></g></g></g></svg>