<?xml version="1.0" encoding="utf-8"?>
<!-- Generator: Adobe Illustrator 16.0.0, SVG Export Plug-In . SVG Version: 6.00 Build 0)  -->
<!DOCTYPE svg PUBLIC "-//W3C//DTD SVG 1.1//EN" "http://www.w3.org/Graphics/SVG/1.1/DTD/svg11.dtd">
<svg version="1.1" id="Layer_1" xmlns="http://www.w3.org/2000/svg" xmlns:xlink="http://www.w3.org/1999/xlink" x="0px" y="0px"
	 width="26px" height="26px" viewBox="0 0 512 512" enable-background="new 0 0 512 512" xml:space="preserve">

<path fill="#ffffff" d="M480,0H32C14.312,0,0,14.312,0,32v448c0,17.688,14.312,32,32,32h448
	c17.688,0,32-14.312,32-32V32C512,14.312,497.688,0,480,0z M192,256c0,0,5.062-64,64-64s64,64,64,64s1.844,64-64,64S192,256,192,256
	z M448,448H64V224h64h4.531c-2.656,10.281-4.531,20.875-4.531,32c0,70.688,57.312,128,128,128s128-57.312,128-128
	c0-11.125-1.875-21.719-4.531-32H384h64V448z M448,160h-96V64h96V160z"/>
</svg>
