<?xml version="1.0" encoding="utf-8"?>
<!-- Generator: Adobe Illustrator 19.2.1, SVG Export Plug-In . SVG Version: 6.00 Build 0)  -->
<svg version="1.1" id="Layer_1" xmlns="http://www.w3.org/2000/svg" xmlns:xlink="http://www.w3.org/1999/xlink" x="0px" y="0px"
	 viewBox="0 0 1024 1024" style="enable-background:new 0 0 1024 1024;" xml:space="preserve">
<style type="text/css">
	.st0{fill:#FFFFFF;}
</style>
<g>
	<path class="st0" d="M217.9,240c-7.8,0-14.4,2.7-17.7,8.1c-3.4,5.6-2.9,12.7,0.7,19.9l87.7,151.8c0.2,0.3,0.2,0.4,0,0.7
		L150.9,663.6c-3.6,7.1-3.4,14.4,0,19.9c3.3,5.4,9.2,8.8,16.9,8.8h129.7c19.4,0,28.7-13,35.3-25c0,0,134.7-238.3,140-247.5
		c-0.5-0.9-89.1-155.4-89.1-155.4c-6.4-11.5-16.2-24.3-36.1-24.3L217.9,240L217.9,240z"/>
	<path id="path19375" class="st0" d="M762.6,62.5c-19.4,0-27.8,12.2-34.7,24.7c0,0-279.3,495.4-288.5,511.6
		c0.4,0.9,184.2,338,184.2,338c6.4,11.5,16.4,24.7,36.2,24.7h129.5c7.8,0,13.9-2.9,17.2-8.3c3.4-5.6,3.3-12.9-0.3-20l-182.7-334
		c-0.2-0.3-0.2-0.6,0-0.9L910.6,90.7c3.6-7.1,3.7-14.5,0.3-20c-3.3-5.4-9.4-8.3-17.3-8.3H762.6z"/>
</g>
</svg>
